<?xml version="1.0" encoding="utf-8"?>
<!-- Generator: Adobe Illustrator 22.0.1, SVG Export Plug-In . SVG Version: 6.00 Build 0)  -->
<svg version="1.1" id="레이어_1" xmlns="http://www.w3.org/2000/svg" xmlns:xlink="http://www.w3.org/1999/xlink" x="0px"
	 y="0px" viewBox="0 0 300 200" style="enable-background:new 0 0 300 200;" xml:space="preserve">
<style type="text/css">
	.st0{fill:#FFFFFF;}
</style>
<g>
	<path class="st0" d="M199.8,62.2h58.7c1.5,0,2.7-1.2,2.7-2.7V26.7c0-1.5-1.2-2.7-2.7-2.7h-76.8c-1.2,0-2.3,0.5-3.2,1.4l-21.5,22.5
		l-21.4-22.5c-0.8-0.9-2-1.4-3.2-1.4H61.4c-1.2,0-2.3,0.5-3.2,1.4L38,46.7c-0.8,0.8-1.2,1.9-1.2,3v91.9c0,1.5,1.2,2.7,2.7,2.7h32.8
		c1.5,0,2.7-1.2,2.7-2.7V67.2c0-2.5,2-4.5,4.5-4.5h34.9c2.5,0,4.5,2,4.5,4.5v74.4c0,1.5,1.2,2.7,2.7,2.7h32.8c1.5,0,2.7-1.2,2.7-2.7
		v-21.1l21.4,22.5c0.8,0.9,2,1.4,3.2,1.4h76.8c1.5,0,2.7-1.2,2.7-2.7v-32.8c0-1.5-1.2-2.7-2.7-2.7h-58.7c-2.5,0-4.5-2-4.5-4.5V66.7
		C195.3,64.2,197.3,62.2,199.8,62.2z"/>
	<g>
		<path class="st0" d="M22.8,176.5c-0.2,0-0.2-0.1-0.3-0.3l-3.8-13.3h-0.1l-3.8,13.3c-0.1,0.2-0.2,0.3-0.3,0.3h-1.4
			c-0.2,0-0.3-0.1-0.3-0.3l-4.3-17.3c-0.1-0.2,0-0.3,0.2-0.3h1.7c0.2,0,0.3,0.1,0.3,0.3l3.2,13.2H14l3.7-13.2
			c0.1-0.2,0.2-0.3,0.3-0.3h1.3c0.2,0,0.3,0.1,0.3,0.3l3.8,13.2h0.1l3.1-13.2c0.1-0.2,0.2-0.3,0.3-0.3h1.7c0.2,0,0.2,0.1,0.2,0.3
			l-4.3,17.3c0,0.2-0.2,0.3-0.3,0.3H22.8z"/>
		<path class="st0" d="M31.6,158.9c0-0.2,0.1-0.3,0.3-0.3h1.8c0.2,0,0.3,0.1,0.3,0.3v17.3c0,0.2-0.1,0.3-0.3,0.3h-1.8
			c-0.2,0-0.3-0.1-0.3-0.3V158.9z"/>
		<path class="st0" d="M38.4,158.9c0-0.2,0.1-0.3,0.3-0.3h1.7c0.2,0,0.3,0.1,0.4,0.3l8.1,13.3h0.1v-13.3c0-0.2,0.1-0.3,0.3-0.3h1.6
			c0.2,0,0.3,0.1,0.3,0.3v17.3c0,0.2-0.1,0.3-0.3,0.3h-1.7c-0.2,0-0.3-0.1-0.4-0.3l-8.1-13.3h-0.1v13.3c0,0.2-0.1,0.3-0.3,0.3h-1.6
			c-0.2,0-0.3-0.1-0.3-0.3V158.9z"/>
		<path class="st0" d="M55.5,158.9c0-0.2,0.1-0.3,0.3-0.3h6c3,0,5,1.3,5.8,3.8c0.3,1,0.5,1.9,0.5,5.1c0,3.2-0.2,4.1-0.5,5.1
			c-0.8,2.5-2.8,3.8-5.8,3.8h-6c-0.2,0-0.3-0.1-0.3-0.3V158.9z M57.9,174.3h3.3c2.1,0,3.5-0.7,4.1-2.4c0.2-0.7,0.4-1.5,0.4-4.3
			c0-2.8-0.1-3.6-0.4-4.3c-0.6-1.7-1.9-2.4-4.1-2.4h-3.3c-0.1,0-0.2,0.1-0.2,0.2v13.1C57.8,174.2,57.8,174.3,57.9,174.3z"/>
		<path class="st0" d="M71.6,172.6c-0.3-1-0.5-2.1-0.5-5c0-2.9,0.1-4,0.5-5c0.9-2.7,3.1-4.2,6-4.2c3,0,5.2,1.4,6.1,4.2
			c0.3,1,0.5,2.1,0.5,5c0,2.9-0.1,4-0.5,5c-0.9,2.7-3.1,4.2-6.1,4.2C74.7,176.7,72.5,175.3,71.6,172.6z M81.4,171.9
			c0.2-0.7,0.4-1.8,0.4-4.4c0-2.6-0.2-3.7-0.4-4.4c-0.5-1.7-1.8-2.6-3.8-2.6c-2,0-3.2,0.9-3.8,2.6c-0.2,0.7-0.4,1.8-0.4,4.4
			c0,2.6,0.2,3.7,0.4,4.4c0.5,1.7,1.8,2.6,3.8,2.6C79.6,174.6,80.9,173.6,81.4,171.9z"/>
		<path class="st0" d="M100.4,176.5c-0.2,0-0.2-0.1-0.3-0.3l-3.8-13.3h-0.1l-3.8,13.3c-0.1,0.2-0.2,0.3-0.3,0.3h-1.4
			c-0.2,0-0.3-0.1-0.3-0.3l-4.3-17.3c-0.1-0.2,0-0.3,0.2-0.3h1.7c0.2,0,0.3,0.1,0.3,0.3l3.2,13.2h0.1l3.7-13.2
			c0.1-0.2,0.2-0.3,0.3-0.3H97c0.2,0,0.3,0.1,0.3,0.3l3.8,13.2h0.1l3.1-13.2c0.1-0.2,0.2-0.3,0.3-0.3h1.7c0.2,0,0.2,0.1,0.2,0.3
			l-4.3,17.3c0,0.2-0.2,0.3-0.3,0.3H100.4z"/>
		<path class="st0" d="M118.7,176.5c-0.2,0-0.3-0.1-0.3-0.3V161c0-0.1-0.1-0.2-0.2-0.2h-4.9c-0.2,0-0.3-0.1-0.3-0.3v-1.6
			c0-0.2,0.1-0.3,0.3-0.3h12.4c0.2,0,0.3,0.1,0.3,0.3v1.6c0,0.2-0.1,0.3-0.3,0.3h-4.9c-0.1,0-0.2,0.1-0.2,0.2v15.2
			c0,0.2-0.1,0.3-0.3,0.3H118.7z"/>
		<path class="st0" d="M128,172.6c-0.3-1-0.5-2.1-0.5-5c0-2.9,0.1-4,0.5-5c0.9-2.7,3.1-4.2,6-4.2c3,0,5.2,1.4,6.1,4.2
			c0.3,1,0.5,2.1,0.5,5c0,2.9-0.1,4-0.5,5c-0.9,2.7-3.1,4.2-6.1,4.2C131.1,176.7,128.9,175.3,128,172.6z M137.9,171.9
			c0.2-0.7,0.4-1.8,0.4-4.4c0-2.6-0.2-3.7-0.4-4.4c-0.5-1.7-1.8-2.6-3.8-2.6c-2,0-3.2,0.9-3.8,2.6c-0.2,0.7-0.4,1.8-0.4,4.4
			c0,2.6,0.2,3.7,0.4,4.4c0.5,1.7,1.8,2.6,3.8,2.6C136.1,174.6,137.3,173.6,137.9,171.9z"/>
		<path class="st0" d="M154.3,176.5c-0.2,0-0.3-0.1-0.3-0.3V161c0-0.1-0.1-0.2-0.2-0.2H149c-0.2,0-0.3-0.1-0.3-0.3v-1.6
			c0-0.2,0.1-0.3,0.3-0.3h12.4c0.2,0,0.3,0.1,0.3,0.3v1.6c0,0.2-0.1,0.3-0.3,0.3h-4.9c-0.1,0-0.2,0.1-0.2,0.2v15.2
			c0,0.2-0.1,0.3-0.3,0.3H154.3z"/>
		<path class="st0" d="M164.4,158.9c0-0.2,0.1-0.3,0.3-0.3h1.8c0.2,0,0.3,0.1,0.3,0.3v7.3c0,0.1,0.1,0.2,0.2,0.2h7.7
			c0.1,0,0.2-0.1,0.2-0.2v-7.3c0-0.2,0.1-0.3,0.3-0.3h1.8c0.2,0,0.3,0.1,0.3,0.3v17.3c0,0.2-0.1,0.3-0.3,0.3H175
			c-0.2,0-0.3-0.1-0.3-0.3v-7.5c0-0.1-0.1-0.2-0.2-0.2h-7.7c-0.1,0-0.2,0.1-0.2,0.2v7.5c0,0.2-0.1,0.3-0.3,0.3h-1.8
			c-0.2,0-0.3-0.1-0.3-0.3V158.9z"/>
		<path class="st0" d="M181.5,158.9c0-0.2,0.1-0.3,0.3-0.3h10.7c0.2,0,0.3,0.1,0.3,0.3v1.6c0,0.2-0.1,0.3-0.3,0.3H184
			c-0.1,0-0.2,0.1-0.2,0.2v5.2c0,0.1,0.1,0.2,0.2,0.2h7.2c0.2,0,0.3,0.1,0.3,0.3v1.6c0,0.2-0.1,0.3-0.3,0.3H184
			c-0.1,0-0.2,0.1-0.2,0.2v5.4c0,0.1,0.1,0.2,0.2,0.2h8.5c0.2,0,0.3,0.1,0.3,0.3v1.6c0,0.2-0.1,0.3-0.3,0.3h-10.7
			c-0.2,0-0.3-0.1-0.3-0.3V158.9z"/>
		<path class="st0" d="M202.5,158.9c0-0.2,0.1-0.3,0.3-0.3h10.7c0.2,0,0.3,0.1,0.3,0.3v1.6c0,0.2-0.1,0.3-0.3,0.3H205
			c-0.1,0-0.2,0.1-0.2,0.2v5.4c0,0.1,0.1,0.2,0.2,0.2h7.2c0.2,0,0.3,0.1,0.3,0.3v1.6c0,0.2-0.1,0.3-0.3,0.3H205
			c-0.1,0-0.2,0.1-0.2,0.2v7.3c0,0.2-0.1,0.3-0.3,0.3h-1.8c-0.2,0-0.3-0.1-0.3-0.3V158.9z"/>
		<path class="st0" d="M216.9,170.3v-11.3c0-0.2,0.1-0.3,0.3-0.3h1.8c0.2,0,0.3,0.1,0.3,0.3v11.3c0,2.9,1.6,4.3,4,4.3
			c2.4,0,3.9-1.5,3.9-4.3v-11.3c0-0.2,0.1-0.3,0.3-0.3h1.8c0.2,0,0.3,0.1,0.3,0.3v11.3c0,4.2-2.4,6.5-6.3,6.5
			C219.3,176.7,216.9,174.4,216.9,170.3z"/>
		<path class="st0" d="M237.6,176.5c-0.2,0-0.3-0.1-0.3-0.3V161c0-0.1-0.1-0.2-0.2-0.2h-4.9c-0.2,0-0.3-0.1-0.3-0.3v-1.6
			c0-0.2,0.1-0.3,0.3-0.3h12.4c0.2,0,0.3,0.1,0.3,0.3v1.6c0,0.2-0.1,0.3-0.3,0.3h-4.9c-0.1,0-0.2,0.1-0.2,0.2v15.2
			c0,0.2-0.1,0.3-0.3,0.3H237.6z"/>
		<path class="st0" d="M247.6,170.3v-11.3c0-0.2,0.1-0.3,0.3-0.3h1.8c0.2,0,0.3,0.1,0.3,0.3v11.3c0,2.9,1.6,4.3,4,4.3
			c2.4,0,3.9-1.5,3.9-4.3v-11.3c0-0.2,0.1-0.3,0.3-0.3h1.8c0.2,0,0.3,0.1,0.3,0.3v11.3c0,4.2-2.4,6.5-6.3,6.5
			C250,176.7,247.6,174.4,247.6,170.3z"/>
		<path class="st0" d="M274.8,176.5c-0.2,0-0.3-0.1-0.3-0.3l-3.6-7.3H267c-0.1,0-0.2,0.1-0.2,0.2v7.1c0,0.2-0.1,0.3-0.3,0.3h-1.8
			c-0.2,0-0.3-0.1-0.3-0.3v-17.3c0-0.2,0.1-0.3,0.3-0.3h6.4c3.3,0,5.6,2,5.6,5.1c0,2.4-1.4,4.2-3.5,4.8l3.8,7.5
			c0.1,0.2,0,0.3-0.2,0.3H274.8z M274.4,163.8c0-1.9-1.2-3-3.3-3H267c-0.1,0-0.2,0.1-0.2,0.2v5.6c0,0.1,0.1,0.2,0.2,0.2h4.2
			C273.2,166.8,274.4,165.7,274.4,163.8z"/>
		<path class="st0" d="M280.6,158.9c0-0.2,0.1-0.3,0.3-0.3h10.7c0.2,0,0.3,0.1,0.3,0.3v1.6c0,0.2-0.1,0.3-0.3,0.3h-8.5
			c-0.1,0-0.2,0.1-0.2,0.2v5.2c0,0.1,0.1,0.2,0.2,0.2h7.2c0.2,0,0.3,0.1,0.3,0.3v1.6c0,0.2-0.1,0.3-0.3,0.3h-7.2
			c-0.1,0-0.2,0.1-0.2,0.2v5.4c0,0.1,0.1,0.2,0.2,0.2h8.5c0.2,0,0.3,0.1,0.3,0.3v1.6c0,0.2-0.1,0.3-0.3,0.3h-10.7
			c-0.2,0-0.3-0.1-0.3-0.3V158.9z"/>
	</g>
</g>
</svg>
